<svg id="Layer_1" enable-background="new 0 0 512.003 512.003" height="512" viewBox="0 0 512.003 512.003" width="512" xmlns="http://www.w3.org/2000/svg"><path d="m454.053 241.721 53.808-70.035c6.73-8.759 5.085-21.314-3.675-28.044s-21.315-5.085-28.044 3.675l-62.353 81.246-8.788 2.129v-210.691c0-11.046-8.954-20-20-20h-169c-5.305 0-10.392 2.107-14.143 5.857l-89 89c-3.75 3.751-5.857 8.838-5.857 14.143v121.44l-16.055-4.607-54.64-76.916c-6.397-9.005-18.883-11.117-27.888-4.722-9.005 6.396-11.118 18.883-4.722 27.888l55.399 77.985-53.5 55.559c-4.786 4.971-6.673 12.057-4.99 18.748 1.682 6.692 6.694 12.044 13.262 14.161l46.135 14.869v83.595c0 8.76 5.7 16.5 14.065 19.1l177 55c3.876 1.204 8.026 1.2 11.9-.01l176-55c8.35-2.609 14.034-10.342 14.034-19.09v-84.004l45.102-14.449c13.293-4.065 18.317-21.108 9.36-31.733zm-241.051-190.436v54.716h-54.716zm-66 94.716h86c11.046 0 20-8.954 20-20v-86h112v202.103l-104.845 29.913c-1.395.058-2.788.262-4.155.614-1.345-.347-2.717-.549-4.09-.61l-104.91-30.103zm-90.369 164.293 39.755-41.284 119.829 34.383-37.192 46.347zm356.369 112.003-156.017 48.756-156.983-48.78v-55.975l79.865 25.74c7.78 2.532 16.535-.012 21.733-6.519l54.319-67.69 53.39 67.572c5.175 6.579 13.972 9.178 21.794 6.647l81.898-26.237v56.486zm-80.902-72.571-36.519-46.219 127.562-36.395 34.727 42.322z"/></svg>